<svg width="10" height="12" viewBox="0 0 10 12" fill="none" xmlns="http://www.w3.org/2000/svg">
<path d="M3.33404 8.82629L3.33351 9.88835C3.33351 10.8049 4.08338 11.5547 4.99991 11.5547C5.91642 11.5547 6.66631 10.8049 6.66631 9.88835L6.66684 8.82629H3.33404ZM5.83308 9.88835C5.83308 10.3494 5.46092 10.7215 4.99988 10.7215C4.53884 10.7215 4.16668 10.3494 4.16668 9.88835L4.16724 9.0796H5.83364L5.83311 9.88835H5.83308Z" fill="#AEB9E1"/>
<path d="M8.40489 6.74442C8.36047 6.64442 8.33268 6.5389 8.33268 6.43335V4.88917C8.33268 3.19498 7.06068 1.78967 5.41649 1.58415V0.862021C5.41649 0.634288 5.22764 0.445435 4.99988 0.445435C4.77215 0.445435 4.58329 0.634288 4.58329 0.862021V1.58415C2.93911 1.78967 1.66708 3.19498 1.66708 4.88917V6.43335C1.66708 6.5389 1.63932 6.64999 1.59487 6.74442L0.600601 8.73301C0.533935 8.86074 0.545055 9.01629 0.617268 9.1385C0.695028 9.26069 0.828334 9.3329 0.972734 9.3329H9.02703C9.17145 9.3329 9.30476 9.26069 9.38252 9.13293C9.46028 9.01074 9.46585 8.85519 9.39919 8.72743L8.40489 6.74442ZM1.64489 8.4997L2.33921 7.11658C2.44526 6.90446 2.50041 6.67054 2.50028 6.43338V4.88917C2.50028 3.51162 3.62233 2.38957 4.99988 2.38957C6.37745 2.38957 7.49948 3.51162 7.49948 4.88917V6.43335C7.49948 6.66666 7.55503 6.90551 7.66057 7.11658L8.35492 8.4997H1.64489Z" fill="#AEB9E1"/>
</svg>
